<svg width="350" height="350" viewBox="0 0 350 350" fill="none" xmlns="http://www.w3.org/2000/svg">
<path fill-rule="evenodd" clip-rule="evenodd" d="M93.5216 0.0768375C101.389 -0.0222352 109.258 -0.0253019 117.126 0.066482C122.045 0.0913351 126.851 -0.119958 131.743 0.351258C132.071 9.07123 132.104 17.2749 132.545 26.1765C142.398 26.1924 152.04 25.384 162.006 25.8542C162.552 30.4133 162.331 39.3782 162.336 44.2222L162.451 137.814C162.496 146.324 163.042 154.899 162.889 163.336C167.773 163.701 183.719 163.927 188.205 163.22C189.295 130.206 188.511 97.4568 188.796 64.4685C188.902 52.302 188.481 36.3431 189.173 24.4782C194.628 24.4054 212.22 25.2371 216.213 24.02C218.813 21.5609 217.478 8.29817 218.863 3.28833C226.49 3.12597 234.299 3.32133 241.946 3.30775C250.418 3.2925 258.983 3.10064 267.439 3.26632C267.773 8.20481 265.732 25.9561 272.474 26.5079C279.717 27.1014 288.232 25.92 295.544 26.759L296.028 26.8173C296.701 41.6467 296.213 60.4919 296.237 75.6925L296.598 147.254C296.581 157.667 296.177 168.094 296.16 178.509C296.154 182.391 296.084 185.672 296.952 189.469C298.099 190.314 322.071 190.663 325.565 190.841C325.37 197.631 324.9 209.396 326.13 216.036C330.689 217.517 343.719 217.25 349.52 217.674C349.361 239.309 350.296 260.547 349.902 282.209C349.856 286.749 349.992 292.75 349.594 297.151C341.639 297.167 333.687 297.316 325.735 297.601C325.158 305.392 325.53 315.883 325.374 324.022C320.706 323.75 301.44 322.246 299.037 324.863C298.322 325.642 298.003 326.54 297.84 327.574C297.446 330.106 297.732 332.923 297.772 335.484C297.851 340.17 297.969 344.852 297.817 349.538C294.65 349.826 290.25 349.674 286.98 349.704C280.394 349.796 273.806 349.856 267.216 349.876L106.25 349.869C88.9884 349.876 69.9992 350.224 52.8774 349.757C52.9333 345.124 53.4883 327.441 51.5236 324.551C48.9734 323.146 32.9827 323.419 28.9922 323.359C28.5824 317.792 30.0001 301.568 26.5914 297.969C25.6601 296.985 24.4383 296.504 23.1319 296.242C17.6331 295.142 6.3001 295.759 0.269201 295.732L0 215.195C5.40589 214.383 18.6585 214.549 24.9904 214.254C26.1262 205.297 24.5528 196.426 25.5042 188.715C31.1914 187.949 48.1025 188.979 51.2841 186.969C54.1534 181.213 52.3303 104.095 52.2846 91.5985C52.0755 75.1704 52.2236 58.7396 52.7285 42.3181C52.8978 36.9967 52.8345 31.7268 53.2566 26.4147C59.7462 25.4146 73.2299 25.8332 80.354 25.7481C80.9149 18.0888 80.3507 7.51685 81.2522 0.768065C85.568 0.286585 89.172 0.194144 93.5216 0.0768375ZM188.39 270.286C181.863 269.425 169.007 270.011 161.939 269.889C162.041 279.021 161.825 289.111 162.098 298.101C164.697 298.127 186.261 298.834 187.732 298.459C188.404 294.609 188.262 287.594 188.258 283.428C188.255 279.144 188.43 274.504 188.39 270.286ZM134.608 212.391C126.368 212.252 116.145 211.845 108.051 212.1C107.474 214.729 107.808 231.232 107.908 235.229C108.21 247.238 107.601 259.582 107.728 271.448C114.188 272.008 128.302 271.989 134.738 271.635L135.319 271.134C135.835 261.335 135.041 248.488 135.285 238.44C135.396 233.877 135.385 215.944 134.608 212.391ZM246.085 212.417C238.319 212.205 223.428 211.943 215.92 212.493C214.638 213.385 215.241 216.981 215.258 218.634L215.268 230.381C215.384 243.809 215.271 257.239 214.937 270.667C225.178 270.667 236.208 270.849 246.406 270.637L247.003 270.316C247.175 266.754 246.608 258.244 246.612 253.86L246.658 228.675C246.665 224.387 246.844 216.364 246.085 212.417Z" fill="#262626"/>
</svg>
